<?xml version="1.0" encoding="utf-8"?>
<!-- Generator: Adobe Illustrator 25.2.3, SVG Export Plug-In . SVG Version: 6.00 Build 0)  -->
<svg version="1.1" id="Ebene_1" xmlns="http://www.w3.org/2000/svg" xmlns:xlink="http://www.w3.org/1999/xlink" x="0px" y="0px"
	 viewBox="0 0 64 64" style="enable-background:new 0 0 64 64;" xml:space="preserve">
<style type="text/css">
	.st0{fill:#FFFFFF;stroke:#000000;stroke-miterlimit:10;}
</style>
<circle class="st0" cx="32" cy="32" r="30.01"/>
<g>
	<path d="M32.8,48.56V17.4l8.53,8.53c0.31,0.31,0.82,0.31,1.13,0c0.31-0.31,0.31-0.82,0-1.13l-9.84-9.84
		c-0.15-0.18-0.36-0.31-0.62-0.31c-0.25,0-0.47,0.12-0.61,0.31l-9.84,9.84c-0.16,0.16-0.23,0.36-0.23,0.57
		c0,0.2,0.08,0.41,0.23,0.57c0.31,0.31,0.82,0.31,1.13,0l8.53-8.53v31.16c0,0.44,0.36,0.8,0.8,0.8C32.44,49.36,32.8,49,32.8,48.56z"
		/>
</g>
</svg>
