<?xml version="1.0" encoding="utf-8"?>
<!-- Generator: Adobe Illustrator 25.2.2, SVG Export Plug-In . SVG Version: 6.00 Build 0)  -->
<svg version="1.1" id="Ebene_1" xmlns="http://www.w3.org/2000/svg" xmlns:xlink="http://www.w3.org/1999/xlink" x="0px" y="0px"
	 viewBox="0 0 60 60" style="enable-background:new 0 0 60 60;" xml:space="preserve">
<g>
	<g>
		<path d="M-178.26-85.24C-178.26-85.24-178.26-85.24-178.26-85.24c-0.83,0-1.61-0.36-2.14-1l-9.95-11.85
			c-2.32-2.76-3.6-6.27-3.6-9.87c0-8.46,6.89-15.35,15.35-15.35h0.68c8.46,0,15.35,6.89,15.35,15.35c0,3.61-1.28,7.11-3.6,9.87
			l-0.49-0.41l0.49,0.41l-9.95,11.85C-176.65-85.6-177.43-85.24-178.26-85.24z M-178.6-122.02c-7.75,0-14.06,6.31-14.06,14.06
			c0,3.3,1.17,6.52,3.29,9.05l9.95,11.85c0.29,0.34,0.71,0.54,1.16,0.54c0.45,0,0.87-0.2,1.16-0.54l9.95-11.85
			c2.12-2.53,3.29-5.74,3.29-9.05c0-7.75-6.31-14.06-14.06-14.06H-178.6z"/>
	</g>
	<g>
		<path d="M-178.26-98.73c-5.09,0-9.23-4.14-9.23-9.23c0-5.09,4.14-9.23,9.23-9.23c5.09,0,9.23,4.14,9.23,9.23
			C-169.03-102.87-173.17-98.73-178.26-98.73z M-178.26-115.9c-4.38,0-7.94,3.56-7.94,7.94c0,4.38,3.56,7.94,7.94,7.94
			c4.38,0,7.94-3.56,7.94-7.94C-170.32-112.34-173.88-115.9-178.26-115.9z"/>
	</g>
</g>
<g id="XMLID_19_">
	<path d="M-86.41,5.54c-0.52,0-1.31-0.08-2.43-0.25c-1.13-0.17-2.47-0.58-4.09-1.25c-1.58-0.66-3.4-1.65-5.39-2.95
		c-1.99-1.3-4.14-3.12-6.39-5.39c-1.78-1.75-3.28-3.46-4.45-5.07c-1.17-1.61-2.13-3.12-2.85-4.49c-0.72-1.37-1.27-2.64-1.63-3.77
		c-0.36-1.13-0.61-2.11-0.74-2.94c-0.14-0.84-0.19-1.5-0.16-2.01c0.02-0.42,0.04-0.66,0.04-0.72c0-0.03,0-0.06,0.01-0.09
		c0.06-0.42,0.19-0.84,0.4-1.27c0.21-0.44,0.48-0.81,0.79-1.09l5.01-5.01c0.48-0.48,1.04-0.72,1.67-0.72c0.47,0,0.89,0.14,1.26,0.41
		c0.31,0.23,0.58,0.52,0.8,0.87c0.01,0.01,0.02,0.03,0.03,0.05l4.05,7.68c0.3,0.53,0.38,1.12,0.25,1.76
		c-0.13,0.6-0.4,1.12-0.82,1.53l-1.82,1.82c0,0.01-0.01,0.02-0.01,0.03c-0.01,0.02-0.01,0.04-0.02,0.05c0.1,0.45,0.3,0.97,0.6,1.55
		c0.29,0.58,0.74,1.29,1.35,2.13c0.61,0.84,1.49,1.82,2.62,2.93c1.11,1.14,2.1,2.03,2.96,2.65c0.85,0.62,1.57,1.08,2.13,1.37
		c0.67,0.34,1.02,0.45,1.2,0.49l0.35,0.07c0.01,0,0.02-0.01,0.04-0.01c0.01,0,0.02-0.01,0.03-0.01l2.12-2.16
		c0.01-0.01,0.02-0.02,0.03-0.03c0.57-0.51,1.25-0.77,2.02-0.77c0.49,0,0.91,0.09,1.24,0.26c0.05,0.01,0.1,0.03,0.14,0.06l7.31,4.32
		c0.7,0.43,1.11,0.99,1.25,1.68c0,0.01,0.01,0.03,0.01,0.04c0.1,0.77-0.15,1.48-0.71,2.05l-5.04,5c-0.26,0.29-0.62,0.55-1.06,0.77
		c-0.42,0.21-0.85,0.34-1.27,0.4c-0.03,0-0.06,0.01-0.09,0.01c-0.01,0-0.07,0.01-0.16,0.02C-86,5.54-86.18,5.54-86.41,5.54z
		 M-113.21-23.24c0,0.11-0.02,0.36-0.04,0.73c-0.02,0.41,0.03,0.99,0.14,1.74c0.12,0.76,0.35,1.68,0.7,2.74
		c0.34,1.06,0.86,2.26,1.55,3.57c0.69,1.32,1.62,2.77,2.75,4.33c1.13,1.55,2.59,3.21,4.32,4.92c2.19,2.21,4.27,3.96,6.19,5.22
		c1.92,1.26,3.67,2.21,5.18,2.84c1.5,0.62,2.78,1.02,3.79,1.17c1.03,0.16,1.78,0.24,2.23,0.24c0.18,0,0.33-0.01,0.44-0.02
		c0.09-0.01,0.16-0.02,0.21-0.02c0.28-0.04,0.57-0.14,0.87-0.28c0.29-0.14,0.52-0.31,0.69-0.5l5.06-5.02
		c0.28-0.28,0.39-0.58,0.35-0.95c-0.07-0.32-0.28-0.58-0.65-0.81l-7.2-4.26c-0.05-0.01-0.09-0.03-0.13-0.06
		c-0.1-0.06-0.31-0.14-0.69-0.14c-0.44,0-0.82,0.14-1.15,0.43l-2.14,2.18c-0.13,0.13-0.29,0.22-0.5,0.29
		c-0.25,0.08-0.42,0.11-0.58,0.08l-0.47-0.1c-0.38-0.08-0.88-0.27-1.53-0.61c-0.63-0.32-1.38-0.8-2.3-1.47
		c-0.91-0.66-1.96-1.6-3.11-2.78c-1.17-1.14-2.1-2.18-2.75-3.08c-0.65-0.9-1.14-1.67-1.46-2.3c-0.38-0.72-0.63-1.4-0.74-1.98
		c-0.01-0.04-0.01-0.08-0.01-0.12c0-0.15,0.03-0.31,0.09-0.49c0.07-0.21,0.16-0.37,0.29-0.5l1.86-1.86
		c0.24-0.24,0.39-0.53,0.47-0.89c0.07-0.33,0.03-0.61-0.12-0.88l-4.05-7.68c-0.13-0.2-0.29-0.37-0.47-0.51
		c-0.14-0.11-0.3-0.16-0.49-0.16c-0.28,0-0.52,0.11-0.76,0.34l-5.03,5.03c-0.21,0.19-0.38,0.43-0.52,0.71
		C-113.08-23.81-113.17-23.52-113.21-23.24z M-91.62-6.12L-91.62-6.12L-91.62-6.12z M-102.87-17.37L-102.87-17.37L-102.87-17.37z"/>
</g>
<g>
	<g>
		<path d="M253.39,183.74h-40.87c-0.36,0-0.64-0.29-0.64-0.64v-26.9c0-0.36,0.29-0.64,0.64-0.64h40.87c0.36,0,0.64,0.29,0.64,0.64
			v26.9C254.03,183.45,253.74,183.74,253.39,183.74z M213.16,182.45h39.59v-25.61h-39.59V182.45z"/>
	</g>
	<g>
		<path d="M232.95,175.46c-0.16,0-0.31-0.06-0.43-0.17l-20.44-18.62c-0.2-0.18-0.26-0.46-0.17-0.71c0.1-0.25,0.33-0.41,0.6-0.41
			h40.87c0.27,0,0.5,0.16,0.6,0.41c0.1,0.25,0.03,0.53-0.17,0.71l-20.44,18.62C233.26,175.4,233.1,175.46,232.95,175.46z
			 M214.18,156.84l18.77,17.11l18.77-17.11H214.18z"/>
	</g>
	<g>
		<path d="M253.39,183.74h-40.87c-0.28,0-0.52-0.18-0.61-0.44c-0.09-0.26,0-0.55,0.22-0.72l16.19-12.14
			c0.28-0.21,0.69-0.16,0.9,0.13c0.21,0.28,0.16,0.69-0.13,0.9l-14.65,10.98h37.01l-14.47-10.85c-0.28-0.21-0.34-0.62-0.13-0.9
			c0.21-0.29,0.62-0.34,0.9-0.13l16.01,12.01c0.22,0.17,0.31,0.46,0.22,0.72C253.91,183.56,253.66,183.74,253.39,183.74z"/>
	</g>
</g>
<g>
	<path d="M55.09,44.5c2.46-4.26,3.87-9.19,3.87-14.45c0-5.26-1.41-10.19-3.87-14.45c-0.01-0.02-0.01-0.05-0.02-0.07
		c-0.01-0.02-0.03-0.03-0.05-0.05c-2.54-4.36-6.17-7.99-10.53-10.53c-0.02-0.01-0.03-0.03-0.05-0.05c-0.02-0.01-0.05-0.01-0.07-0.02
		C40.11,2.41,35.17,1,29.91,1c-5.26,0-10.19,1.41-14.45,3.87c-0.02,0.01-0.05,0.01-0.07,0.02c-0.02,0.01-0.03,0.03-0.05,0.05
		c-4.36,2.54-7.99,6.18-10.53,10.53c-0.01,0.02-0.03,0.03-0.05,0.05c-0.01,0.02-0.01,0.04-0.02,0.07
		c-2.46,4.26-3.87,9.19-3.87,14.45c0,5.26,1.41,10.19,3.87,14.45c0.01,0.02,0.01,0.05,0.02,0.07c0.02,0.03,0.04,0.05,0.06,0.08
		c2.54,4.34,6.17,7.97,10.51,10.5c0.02,0.01,0.03,0.03,0.05,0.05c0.03,0.02,0.07,0.03,0.1,0.04c4.25,2.44,9.17,3.85,14.42,3.85
		c5.25,0,10.17-1.41,14.42-3.85c0.03-0.01,0.07-0.02,0.1-0.04c0.02-0.01,0.03-0.03,0.05-0.05c4.35-2.53,7.98-6.16,10.51-10.5
		c0.02-0.03,0.05-0.05,0.06-0.08C55.08,44.54,55.08,44.52,55.09,44.5z M44.3,53.2l-1.15-2c-0.24-0.42-0.78-0.57-1.21-0.32
		c-0.42,0.24-0.57,0.78-0.32,1.21l1.16,2c-3.59,1.93-7.66,3.07-11.98,3.21v-2.31c0-0.49-0.4-0.88-0.88-0.88
		c-0.49,0-0.88,0.4-0.88,0.88v2.31c-4.32-0.14-8.39-1.28-11.98-3.21l1.16-2c0.24-0.42,0.1-0.96-0.32-1.21
		c-0.42-0.24-0.96-0.1-1.21,0.32l-1.15,2c-3.55-2.21-6.55-5.22-8.77-8.77l2-1.15c0.42-0.24,0.57-0.78,0.32-1.21
		c-0.24-0.42-0.78-0.57-1.21-0.32l-2,1.16c-1.93-3.59-3.07-7.66-3.21-11.98h2.31c0.49,0,0.88-0.4,0.88-0.88
		c0-0.49-0.4-0.88-0.88-0.88H2.66c0.14-4.32,1.28-8.39,3.21-11.98l2,1.15c0.14,0.08,0.29,0.12,0.44,0.12c0.31,0,0.6-0.16,0.77-0.44
		c0.24-0.42,0.1-0.96-0.32-1.21l-2-1.15c2.21-3.55,5.22-6.55,8.77-8.77l1.15,2c0.16,0.28,0.46,0.44,0.77,0.44
		c0.15,0,0.3-0.04,0.44-0.12c0.42-0.24,0.57-0.78,0.32-1.21l-1.16-2c3.59-1.93,7.66-3.07,11.98-3.21V5.1c0,0.49,0.4,0.88,0.88,0.88
		c0.49,0,0.88-0.4,0.88-0.88V2.79C35.12,2.93,39.19,4.07,42.78,6l-1.16,2c-0.24,0.42-0.1,0.96,0.32,1.21
		c0.14,0.08,0.29,0.12,0.44,0.12c0.31,0,0.6-0.16,0.77-0.44l1.15-2c3.55,2.21,6.55,5.22,8.77,8.77l-2,1.15
		c-0.42,0.24-0.57,0.78-0.32,1.21c0.16,0.28,0.46,0.44,0.77,0.44c0.15,0,0.3-0.04,0.44-0.12l2-1.16c1.93,3.59,3.07,7.66,3.21,11.98
		h-2.31c-0.49,0-0.88,0.4-0.88,0.88c0,0.49,0.4,0.88,0.88,0.88h2.31c-0.14,4.32-1.28,8.39-3.21,11.98l-2-1.16
		c-0.42-0.24-0.96-0.1-1.21,0.32c-0.24,0.42-0.1,0.96,0.32,1.21l2,1.15C50.86,47.98,47.85,50.98,44.3,53.2z"/>
	<path d="M37.11,33.72l-6.31-4.15V11.99c0-0.49-0.4-0.88-0.88-0.88c-0.49,0-0.88,0.4-0.88,0.88v18.05c0,0.3,0.15,0.57,0.4,0.74
		l6.71,4.42c0.15,0.1,0.32,0.15,0.48,0.15c0.29,0,0.57-0.14,0.74-0.4C37.63,34.54,37.51,33.99,37.11,33.72z"/>
</g>
</svg>
