<?xml version="1.0" encoding="utf-8"?>
<!-- Generator: Adobe Illustrator 25.4.1, SVG Export Plug-In . SVG Version: 6.00 Build 0)  -->
<svg version="1.1" id="Ebene_1" xmlns="http://www.w3.org/2000/svg" xmlns:xlink="http://www.w3.org/1999/xlink" x="0px" y="0px"
	 viewBox="0 0 60 60" style="enable-background:new 0 0 60 60;" xml:space="preserve">
<style type="text/css">
	.st0{fill:#FFFFFF;}
</style>
<g>
	<path class="st0" d="M0.3,11.4V6.1c0-1.2,1-2.1,2.1-2.1h55.2c1.2,0,2.1,1,2.1,2.1v5.3c0,1.2-1,2.1-2.1,2.1H2.4
		C1.2,13.5,0.3,12.6,0.3,11.4z M0.3,32.7v-5.3c0-1.2,1-2.1,2.1-2.1h55.2c1.2,0,2.1,1,2.1,2.1v5.3c0,1.2-1,2.1-2.1,2.1H2.4
		C1.2,34.8,0.3,33.8,0.3,32.7z M0.3,53.9v-5.3c0-1.2,1-2.1,2.1-2.1h55.2c1.2,0,2.1,1,2.1,2.1v5.3c0,1.2-1,2.1-2.1,2.1H2.4
		C1.2,56,0.3,55.1,0.3,53.9z"/>
</g>
</svg>
