<?xml version="1.0" encoding="utf-8"?>
<!-- Generator: Adobe Illustrator 25.2.2, SVG Export Plug-In . SVG Version: 6.00 Build 0)  -->
<svg version="1.1" id="Ebene_1" xmlns="http://www.w3.org/2000/svg" xmlns:xlink="http://www.w3.org/1999/xlink" x="0px" y="0px"
	 viewBox="0 0 60 60" style="enable-background:new 0 0 60 60;" xml:space="preserve">
<g>
	<g>
		<path d="M30.55,58.46C30.55,58.46,30.55,58.46,30.55,58.46c-1.25,0-2.43-0.55-3.23-1.51L12.31,39.08
			c-3.5-4.17-5.43-9.46-5.43-14.9c0-12.77,10.39-23.16,23.16-23.16h1.03c12.77,0,23.16,10.39,23.16,23.16
			c0,5.44-1.93,10.73-5.43,14.9l-0.74-0.63l0.74,0.63L33.79,56.95C32.98,57.91,31.81,58.46,30.55,58.46z M30.04,2.96
			c-11.7,0-21.22,9.52-21.22,21.22c0,4.98,1.77,9.83,4.97,13.65L28.81,55.7c0.43,0.52,1.07,0.81,1.74,0.81
			c0.67,0,1.31-0.3,1.74-0.81l15.02-17.88c3.21-3.82,4.97-8.66,4.97-13.65c0-11.7-9.52-21.22-21.22-21.22H30.04z"/>
	</g>
	<g>
		<path d="M30.55,38.1c-7.68,0-13.92-6.25-13.92-13.92c0-7.68,6.25-13.92,13.92-13.92c7.68,0,13.92,6.25,13.92,13.92
			C44.48,31.86,38.23,38.1,30.55,38.1z M30.55,12.2c-6.6,0-11.98,5.37-11.98,11.98c0,6.61,5.37,11.98,11.98,11.98
			c6.61,0,11.98-5.37,11.98-11.98C42.53,17.57,37.16,12.2,30.55,12.2z"/>
	</g>
</g>
<g>
	<g>
		<path d="M253.39,183.74h-40.87c-0.36,0-0.64-0.29-0.64-0.64v-26.9c0-0.36,0.29-0.64,0.64-0.64h40.87c0.36,0,0.64,0.29,0.64,0.64
			v26.9C254.03,183.45,253.74,183.74,253.39,183.74z M213.16,182.45h39.59v-25.61h-39.59V182.45z"/>
	</g>
	<g>
		<path d="M232.95,175.46c-0.16,0-0.31-0.06-0.43-0.17l-20.44-18.62c-0.2-0.18-0.26-0.46-0.17-0.71c0.1-0.25,0.33-0.41,0.6-0.41
			h40.87c0.27,0,0.5,0.16,0.6,0.41c0.1,0.25,0.03,0.53-0.17,0.71l-20.44,18.62C233.26,175.4,233.1,175.46,232.95,175.46z
			 M214.18,156.84l18.77,17.11l18.77-17.11H214.18z"/>
	</g>
	<g>
		<path d="M253.39,183.74h-40.87c-0.28,0-0.52-0.18-0.61-0.44c-0.09-0.26,0-0.55,0.22-0.72l16.19-12.14
			c0.28-0.21,0.69-0.16,0.9,0.13c0.21,0.28,0.16,0.69-0.13,0.9l-14.65,10.98h37.01l-14.47-10.85c-0.28-0.21-0.34-0.62-0.13-0.9
			c0.21-0.29,0.62-0.34,0.9-0.13l16.01,12.01c0.22,0.17,0.31,0.46,0.22,0.72C253.91,183.56,253.66,183.74,253.39,183.74z"/>
	</g>
</g>
</svg>
