<?xml version="1.0" encoding="utf-8"?>
<!-- Generator: Adobe Illustrator 25.2.2, SVG Export Plug-In . SVG Version: 6.00 Build 0)  -->
<svg version="1.1" id="Ebene_1" xmlns="http://www.w3.org/2000/svg" xmlns:xlink="http://www.w3.org/1999/xlink" x="0px" y="0px"
	 viewBox="0 0 60 60" style="enable-background:new 0 0 60 60;" xml:space="preserve">
<path d="M58.98,47.58c0.03-0.09,0.04-0.19,0.05-0.28c0,0,0,0,0,0V10.32c0-0.01,0-0.02,0-0.02c0-0.1-0.02-0.2-0.05-0.3
	c0,0-0.01-0.01-0.01-0.01c-0.01-0.02-0.02-0.03-0.03-0.05c-0.04-0.08-0.08-0.15-0.14-0.21c-0.02-0.02-0.05-0.04-0.07-0.06
	c-0.06-0.05-0.12-0.09-0.18-0.12c-0.03-0.01-0.05-0.03-0.08-0.04c-0.1-0.04-0.2-0.06-0.31-0.06H1.94c-0.11,0-0.21,0.03-0.31,0.06
	C1.6,9.51,1.57,9.52,1.54,9.54C1.48,9.57,1.42,9.61,1.36,9.66C1.34,9.68,1.31,9.7,1.29,9.72c-0.06,0.06-0.1,0.13-0.14,0.21
	C1.14,9.95,1.13,9.97,1.12,9.98c0,0-0.01,0.01-0.01,0.01c-0.04,0.1-0.05,0.2-0.05,0.3c0,0.01,0,0.02,0,0.02V47.3c0,0,0,0,0,0
	c0,0.09,0.01,0.19,0.05,0.28c0,0.01,0.01,0.02,0.02,0.03c0.01,0.03,0.03,0.06,0.05,0.09c0.03,0.06,0.07,0.12,0.12,0.18
	c0.02,0.03,0.05,0.05,0.08,0.08c0.05,0.05,0.11,0.09,0.18,0.12c0.03,0.02,0.06,0.03,0.09,0.05c0.1,0.04,0.2,0.06,0.31,0.06h56.2
	c0.11,0,0.21-0.03,0.31-0.06c0.03-0.01,0.06-0.03,0.09-0.05c0.06-0.03,0.12-0.07,0.18-0.12c0.03-0.02,0.05-0.05,0.08-0.08
	c0.05-0.05,0.09-0.11,0.12-0.18c0.02-0.03,0.03-0.06,0.05-0.09C58.96,47.6,58.97,47.59,58.98,47.58z M57.25,45.53L37.26,30.54
	l19.99-18.22V45.53z M55.85,11.2L30.04,34.72L4.23,11.2H55.85z M22.82,30.54L2.83,45.53V12.32L22.82,30.54z M4.6,46.42l19.55-14.66
	l5.29,4.82c0.17,0.15,0.38,0.23,0.6,0.23c0.21,0,0.43-0.08,0.6-0.23l5.29-4.82l19.55,14.66H4.6z"/>
</svg>
