<?xml version="1.0" encoding="utf-8"?>
<!-- Generator: Adobe Illustrator 25.2.2, SVG Export Plug-In . SVG Version: 6.00 Build 0)  -->
<svg version="1.1" id="Ebene_1" xmlns="http://www.w3.org/2000/svg" xmlns:xlink="http://www.w3.org/1999/xlink" x="0px" y="0px"
	 viewBox="0 0 60 60" style="enable-background:new 0 0 60 60;" xml:space="preserve">
<g>
	<g>
		<path d="M-178.26-85.24C-178.26-85.24-178.26-85.24-178.26-85.24c-0.83,0-1.61-0.36-2.14-1l-9.95-11.85
			c-2.32-2.76-3.6-6.27-3.6-9.87c0-8.46,6.89-15.35,15.35-15.35h0.68c8.46,0,15.35,6.89,15.35,15.35c0,3.61-1.28,7.11-3.6,9.87
			l-0.49-0.41l0.49,0.41l-9.95,11.85C-176.65-85.6-177.43-85.24-178.26-85.24z M-178.6-122.02c-7.75,0-14.06,6.31-14.06,14.06
			c0,3.3,1.17,6.52,3.29,9.05l9.95,11.85c0.29,0.34,0.71,0.54,1.16,0.54c0.45,0,0.87-0.2,1.16-0.54l9.95-11.85
			c2.12-2.53,3.29-5.74,3.29-9.05c0-7.75-6.31-14.06-14.06-14.06H-178.6z"/>
	</g>
	<g>
		<path d="M-178.26-98.73c-5.09,0-9.23-4.14-9.23-9.23c0-5.09,4.14-9.23,9.23-9.23c5.09,0,9.23,4.14,9.23,9.23
			C-169.03-102.87-173.17-98.73-178.26-98.73z M-178.26-115.9c-4.38,0-7.94,3.56-7.94,7.94c0,4.38,3.56,7.94,7.94,7.94
			c4.38,0,7.94-3.56,7.94-7.94C-170.32-112.34-173.88-115.9-178.26-115.9z"/>
	</g>
</g>
<g id="XMLID_19_">
	<path d="M45.07,59.05c-0.81,0-2.06-0.13-3.8-0.4c-1.77-0.27-3.87-0.91-6.41-1.97c-2.48-1.03-5.32-2.59-8.44-4.63
		c-3.13-2.05-6.5-4.89-10.02-8.44c-2.79-2.75-5.14-5.42-6.98-7.95c-1.84-2.52-3.34-4.89-4.47-7.04c-1.13-2.15-1.99-4.14-2.56-5.91
		c-0.57-1.76-0.96-3.31-1.16-4.6c-0.21-1.32-0.29-2.35-0.25-3.15c0.04-0.66,0.06-1.04,0.06-1.14c0-0.04,0-0.1,0.01-0.14
		c0.09-0.65,0.3-1.32,0.62-1.99c0.33-0.69,0.75-1.26,1.24-1.71l7.85-7.86c0.75-0.75,1.63-1.13,2.61-1.13c0.74,0,1.4,0.22,1.97,0.65
		c0.49,0.36,0.91,0.82,1.25,1.36c0.01,0.02,0.03,0.05,0.04,0.07L23,15.15c0.46,0.83,0.6,1.76,0.39,2.76
		c-0.2,0.94-0.63,1.75-1.28,2.4l-2.86,2.86c-0.01,0.01-0.01,0.03-0.02,0.04c-0.01,0.03-0.02,0.06-0.03,0.08
		c0.15,0.7,0.47,1.52,0.94,2.43c0.45,0.91,1.16,2.03,2.12,3.34c0.96,1.32,2.33,2.86,4.1,4.59c1.74,1.79,3.3,3.18,4.64,4.15
		c1.34,0.97,2.46,1.7,3.34,2.14c1.05,0.53,1.6,0.71,1.88,0.77l0.55,0.11c0.02-0.01,0.04-0.01,0.06-0.02
		c0.02-0.01,0.03-0.01,0.04-0.02l3.33-3.38c0.02-0.02,0.03-0.03,0.05-0.05c0.9-0.8,1.96-1.2,3.16-1.2c0.77,0,1.42,0.14,1.95,0.41
		c0.08,0.02,0.16,0.05,0.22,0.09l11.45,6.76c1.09,0.67,1.75,1.56,1.96,2.63c0,0.02,0.01,0.05,0.01,0.07
		c0.16,1.21-0.23,2.33-1.12,3.22L50,57.16c-0.41,0.45-0.98,0.87-1.67,1.2c-0.66,0.32-1.33,0.53-1.99,0.63
		c-0.05,0.01-0.09,0.01-0.14,0.01c-0.02,0-0.11,0.01-0.26,0.03C45.71,59.04,45.43,59.05,45.07,59.05z M3.06,13.93
		C3.05,14.1,3.03,14.49,3,15.08c-0.04,0.64,0.04,1.56,0.23,2.72c0.19,1.19,0.55,2.64,1.09,4.3c0.53,1.66,1.35,3.54,2.43,5.6
		c1.08,2.07,2.53,4.35,4.31,6.79c1.78,2.44,4.06,5.03,6.78,7.71c3.43,3.46,6.69,6.21,9.69,8.18c3.02,1.97,5.75,3.47,8.11,4.45
		c2.35,0.98,4.35,1.59,5.94,1.84c1.62,0.25,2.79,0.37,3.5,0.37c0.28,0,0.51-0.01,0.68-0.02c0.14-0.01,0.26-0.02,0.33-0.03
		c0.44-0.07,0.9-0.21,1.36-0.44c0.45-0.22,0.82-0.48,1.09-0.78l7.93-7.87c0.44-0.44,0.61-0.91,0.55-1.49
		c-0.11-0.5-0.44-0.9-1.02-1.26L44.7,38.47c-0.08-0.02-0.15-0.05-0.21-0.09c-0.16-0.1-0.48-0.21-1.08-0.21
		c-0.69,0-1.28,0.22-1.8,0.67l-3.36,3.42c-0.2,0.2-0.45,0.34-0.78,0.46c-0.39,0.13-0.65,0.17-0.91,0.12l-0.74-0.15
		c-0.59-0.12-1.38-0.43-2.4-0.95c-0.99-0.5-2.16-1.26-3.61-2.31c-1.43-1.04-3.07-2.5-4.87-4.35c-1.83-1.79-3.29-3.42-4.31-4.83
		c-1.02-1.41-1.79-2.62-2.28-3.61c-0.59-1.14-0.98-2.19-1.16-3.11c-0.01-0.06-0.02-0.13-0.02-0.19c0-0.23,0.05-0.48,0.14-0.77
		c0.11-0.33,0.26-0.58,0.45-0.78l2.91-2.91c0.38-0.38,0.62-0.83,0.73-1.39c0.11-0.52,0.05-0.95-0.19-1.37L14.89,4.08
		c-0.21-0.32-0.45-0.58-0.74-0.8c-0.22-0.17-0.47-0.25-0.76-0.25c-0.44,0-0.82,0.17-1.19,0.53l-7.89,7.89
		c-0.33,0.3-0.6,0.67-0.81,1.12C3.27,13.05,3.13,13.5,3.06,13.93z M36.9,40.77L36.9,40.77L36.9,40.77z M19.27,23.13L19.27,23.13
		L19.27,23.13z"/>
</g>
<g>
	<g>
		<path d="M253.39,183.74h-40.87c-0.36,0-0.64-0.29-0.64-0.64v-26.9c0-0.36,0.29-0.64,0.64-0.64h40.87c0.36,0,0.64,0.29,0.64,0.64
			v26.9C254.03,183.45,253.74,183.74,253.39,183.74z M213.16,182.45h39.59v-25.61h-39.59V182.45z"/>
	</g>
	<g>
		<path d="M232.95,175.46c-0.16,0-0.31-0.06-0.43-0.17l-20.44-18.62c-0.2-0.18-0.26-0.46-0.17-0.71c0.1-0.25,0.33-0.41,0.6-0.41
			h40.87c0.27,0,0.5,0.16,0.6,0.41c0.1,0.25,0.03,0.53-0.17,0.71l-20.44,18.62C233.26,175.4,233.1,175.46,232.95,175.46z
			 M214.18,156.84l18.77,17.11l18.77-17.11H214.18z"/>
	</g>
	<g>
		<path d="M253.39,183.74h-40.87c-0.28,0-0.52-0.18-0.61-0.44c-0.09-0.26,0-0.55,0.22-0.72l16.19-12.14
			c0.28-0.21,0.69-0.16,0.9,0.13c0.21,0.28,0.16,0.69-0.13,0.9l-14.65,10.98h37.01l-14.47-10.85c-0.28-0.21-0.34-0.62-0.13-0.9
			c0.21-0.29,0.62-0.34,0.9-0.13l16.01,12.01c0.22,0.17,0.31,0.46,0.22,0.72C253.91,183.56,253.66,183.74,253.39,183.74z"/>
	</g>
</g>
</svg>
