<?xml version="1.0" encoding="utf-8"?>
<!-- Generator: Adobe Illustrator 25.4.1, SVG Export Plug-In . SVG Version: 6.00 Build 0)  -->
<svg version="1.1" id="Ebene_1" xmlns="http://www.w3.org/2000/svg" xmlns:xlink="http://www.w3.org/1999/xlink" x="0px" y="0px"
	 viewBox="0 0 60 60" style="enable-background:new 0 0 60 60;" xml:space="preserve">
<g>
	<path d="M59.6,40.4v4.4c0,4.1-3.3,7.4-7.4,7.4H7.8c-4.1,0-7.4-3.3-7.4-7.4v-4.4c0-0.8,0.7-1.5,1.5-1.5h4.4V13.7
		c0-3.3,2.7-5.9,5.9-5.9h35.5c3.3,0,5.9,2.7,5.9,5.9v25.1h4.4C58.9,38.9,59.6,39.5,59.6,40.4z M56.6,41.8h-18c-0.6,1.7-2.3,3-4.2,3
		h-8.9c-1.9,0-3.6-1.2-4.2-3h-18v3c0,2.4,2,4.4,4.4,4.4h44.4c2.4,0,4.4-2,4.4-4.4V41.8z M9.3,38.9h14.1c0.4,0,0.6,0.3,0.7,0.7
		c0.3,1.3,1.5,2.3,2.9,2.3H33c1.4,0,2.6-1,2.9-2.3c0.1-0.4,0.4-0.7,0.7-0.7h14.1V13.7c0-1.6-1.3-3-3-3H12.3c-1.6,0-3,1.3-3,3V38.9z"
		/>
</g>
</svg>
