<?xml version="1.0" encoding="utf-8"?>
<!-- Generator: Adobe Illustrator 25.2.2, SVG Export Plug-In . SVG Version: 6.00 Build 0)  -->
<svg version="1.1" id="Ebene_1" xmlns="http://www.w3.org/2000/svg" xmlns:xlink="http://www.w3.org/1999/xlink" x="0px" y="0px"
	 viewBox="0 0 257.6 59" style="enable-background:new 0 0 257.6 59;" xml:space="preserve">
<style type="text/css">
	.st0{fill:#95C11F;}
	.st1{fill:#585758;}
	.st2{fill:#57423B;}
	.st3{fill:#BA9D73;}
</style>
<g>
	<g>
		<path class="st0" d="M92.2,23.8c0-0.5,0-0.9,0.1-1.2c0-0.3,0.1-0.5,0.1-0.5l1.4-0.3l-0.1-1h-5.4l-0.1,1l1.4,0.3
			c0,0.1,0.1,0.2,0.1,0.5c0,0.3,0,0.7,0.1,1.2c0,0.5,0,1.1,0,1.8v1.1c-0.3,0-0.6,0-0.9,0.1c-0.6,0-1.2,0-2,0c-0.8,0-1.5,0-2.1,0
			c-0.4,0-0.7,0-1-0.1v-1.1c0-0.7,0-1.3,0-1.8s0-0.9,0.1-1.2c0-0.3,0.1-0.5,0.1-0.5l1.4-0.3l-0.1-1H80l-0.1,1l1.4,0.3
			c0,0.1,0.1,0.2,0.1,0.5c0,0.3,0,0.7,0,1.2c0,0.5,0,1.1,0,1.8v4c0,0.7,0,1.2,0,1.7c0,0.5,0,0.9,0,1.2c0,0.3,0,0.5-0.1,0.6l-1.4,0.3
			l0.1,1h5.4l0.1-1L84,33.1c0-0.1-0.1-0.3-0.1-0.5s0-0.7-0.1-1.2c0-0.5,0-1.1,0-1.8v-1.5c0.3,0,0.6,0,0.9,0c0.5,0,1.2,0,2.1,0
			c0.8,0,1.5,0,2,0c0.4,0,0.7,0,0.9,0v1.5c0,0.7,0,1.3,0,1.8c0,0.5,0,0.9-0.1,1.2s-0.1,0.5-0.1,0.5l-1.4,0.3l0.1,1h5.4l0.1-1
			l-1.4-0.3c0-0.1-0.1-0.3-0.1-0.5c0-0.3,0-0.7-0.1-1.2c0-0.5,0-1.1,0-1.8v-4C92.2,24.9,92.2,24.3,92.2,23.8z"/>
		<path class="st0" d="M104.8,20.8l-0.1,1l1.6,0.4c0,0.1,0.1,0.3,0.1,0.6c0,0.3,0,0.8,0.1,1.3c0,0.6,0,1.2,0,2v2.6
			c0,1-0.1,1.8-0.4,2.4c-0.3,0.6-0.6,1.1-1.1,1.4c-0.5,0.3-1.1,0.4-1.8,0.4c-0.7,0-1.3-0.1-1.8-0.4c-0.5-0.3-0.9-0.7-1.2-1.3
			c-0.3-0.6-0.4-1.4-0.4-2.3v-3.2c0-0.8,0-1.4,0-1.9c0-0.5,0-0.8,0-1.1s0-0.4,0-0.5l1.4-0.4l-0.1-1h-5.3l-0.1,1l1.5,0.4
			c0,0,0,0.2,0,0.4c0,0.2,0,0.6,0,1.1s0,1.1,0,1.9v3.5c0,1.8,0.5,3.1,1.5,4.1c1,1,2.3,1.4,4.1,1.4c1,0,1.9-0.2,2.7-0.6
			c0.8-0.4,1.4-1.1,1.8-1.9s0.7-1.9,0.7-3.2V26c0-0.9,0-1.6,0-2.1c0-0.6,0-1,0-1.3c0-0.3,0-0.5,0-0.5l1.4-0.4l-0.1-1L104.8,20.8
			L104.8,20.8z"/>
		<path class="st0" d="M120.7,20.8l-0.1,1l1.6,0.3c0,0.1,0.1,0.2,0.1,0.6s0,0.8,0.1,1.3c0,0.6,0,1.3,0,2.1V30l-7.4-9.2h-3.3l-0.1,1
			l1.4,0.3c0,0.1,0.1,0.2,0.1,0.5s0,0.6,0.1,1.1c0,0.5,0,1,0,1.6v3.7c0,0.9,0,1.6,0,2.2c0,0.6,0,1-0.1,1.4c0,0.3,0,0.5-0.1,0.6
			l-1.4,0.3l0.1,1h4.6l0.1-1l-1.6-0.3c0-0.1,0-0.3-0.1-0.6c0-0.3,0-0.8-0.1-1.3c0-0.6,0-1.3,0-2.2v-4.7l8,10.3h1.2
			c0-0.5,0-1.1,0-1.6s0-1.1,0-1.6v-5.2c0-0.8,0-1.6,0-2.1c0-0.6,0-1,0.1-1.3c0-0.3,0-0.5,0.1-0.6l1.4-0.3l-0.1-1L120.7,20.8
			L120.7,20.8z"/>
		<path class="st0" d="M139,22.5c-1.4-1.2-3.3-1.8-5.8-1.8h-5.9l-0.1,1l1.4,0.3c0.1,0.1,0.1,0.5,0.1,1.1s0,1.4,0,2.4v4
			c0,0.9,0,1.6,0,2.3c0,0.7-0.1,1.1-0.1,1.2l-1.4,0.3l0.1,1h6.1c1.5,0,2.8-0.3,3.9-0.9s2-1.4,2.7-2.5c0.6-1,1-2.3,1-3.6
			C141,25.3,140.4,23.7,139,22.5z M137.1,31.8c-0.8,0.8-2,1.2-3.5,1.2c-0.4,0-0.7,0-1.1-0.1s-0.8-0.1-1.2-0.2c0-0.2,0-0.5-0.1-0.8
			c0-0.3,0-0.7-0.1-1.1c0-0.4,0-0.8,0-1.3v-4c0-0.7,0-1.3,0-1.8s0-0.8,0-1.1c0-0.3,0-0.5,0-0.6c0.3-0.1,0.6-0.1,0.9-0.1
			c0.3,0,0.6,0,0.8,0c0.8,0,1.6,0.1,2.2,0.4c0.7,0.3,1.2,0.6,1.7,1.2c0.5,0.5,0.8,1.2,1.1,1.9c0.2,0.8,0.4,1.7,0.4,2.7
			C138.3,29.8,137.9,31,137.1,31.8z"/>
		<path class="st0" d="M151.9,33c-0.1,0-0.2,0-0.3,0c-0.1,0-0.3,0-0.5,0c-0.2,0-0.5,0-0.9,0h-1.9c-0.4,0-0.7,0-0.9,0
			c-0.3,0-0.5,0-0.8-0.1c0-0.1,0-0.3,0-0.5c0-0.2,0-0.5,0-0.9c0-0.3,0-0.7,0-1.1v-2.5c0.1,0,0.2,0,0.3,0c0.2,0,0.5,0,0.7,0h1.6
			c0.3,0,0.5,0,0.7,0c0.2,0,0.4,0,0.4,0l0.3,1.6h1.1v-4.6h-1.1l-0.3,1.6c-0.1,0-0.2,0-0.4,0s-0.4,0-0.7,0h-1.6c-0.2,0-0.5,0-0.7,0
			c-0.1,0-0.2,0-0.3,0v-2c0-0.4,0-0.8,0-1.2c0-0.4,0-0.7,0-1c0-0.3,0-0.5,0-0.5c0.2,0,0.4,0,0.7-0.1s0.5,0,0.8,0h2.3
			c0.2,0,0.4,0,0.5,0c0.1,0,0.3,0,0.4,0.1l0.8,2l1.1-0.2l-0.5-3.2c-0.3,0-0.6,0-0.9,0.1c-0.3,0-0.6,0-0.9,0c-0.3,0-0.6,0-0.8,0h-7.4
			l-0.1,1l1.4,0.3c0,0.1,0.1,0.2,0.1,0.5c0,0.3,0,0.7,0.1,1.2c0,0.5,0,1.1,0,1.8v4c0,0.7,0,1.2,0,1.7c0,0.5,0,0.9-0.1,1.2
			c0,0.3-0.1,0.5-0.1,0.6l-1.4,0.3l0.1,1h8c0.4,0,0.8,0,1.2,0c0.4,0,0.9,0,1.3,0.1l1-3.5l-1.1-0.2L151.9,33z"/>
		<path class="st0" d="M166.7,20.7c-0.2,0-0.4,0-0.7,0c-0.2,0-0.5,0-0.7,0c-0.2,0-0.4,0-0.6,0h-6.4c-0.2,0-0.4,0-0.6,0s-0.5,0-0.7,0
			c-0.2,0-0.5,0-0.7,0c-0.2,0-0.4,0-0.6,0l-0.5,3.9l1.2,0.1l0.9-2.7c0.1,0,0.3,0,0.5-0.1c0.1,0,0.3,0,0.5,0h0.9c0.1,0,0.4,0,0.6,0
			c0.2,0,0.4,0,0.6,0c0,0.1,0,0.4,0,0.9s0,1,0,1.6c0,0.6,0,1.2,0,1.8v2.8c0,0.9,0,1.8,0,2.5c0,0.7,0,1.2-0.1,1.5l-2,0.3l0.1,1h6.3
			l0.1-1l-2-0.3c0-0.3,0-0.8-0.1-1.5s0-1.5,0-2.5v-2.8c0-0.6,0-1.2,0-1.8c0-0.6,0-1.2,0-1.6c0-0.5,0-0.7,0-0.9c0.2,0,0.4,0,0.6,0
			s0.4,0,0.6,0h0.8c0.1,0,0.3,0,0.4,0s0.3,0,0.5,0.1l0.9,2.6l1.2-0.1l-0.5-3.9C167.1,20.7,166.9,20.7,166.7,20.7z"/>
		<path class="st0" d="M179.9,32.4c-0.3-0.3-0.7-0.8-1.1-1.4l-2.2-3.2c0.2,0,0.3-0.1,0.5-0.2c0.8-0.3,1.4-0.8,1.8-1.4
			c0.4-0.6,0.7-1.3,0.7-2c0-1.1-0.4-2-1.2-2.6c-0.8-0.6-2-0.9-3.5-0.9h-5.4l-0.1,1l1.4,0.3c0,0.1,0.1,0.2,0.1,0.5
			c0,0.3,0,0.7,0.1,1.2c0,0.5,0,1.1,0,1.8v4c0,0.3,0,0.7,0,1.1c0,0.4,0,0.7,0,1s0,0.6,0,0.8c0,0.2,0,0.4,0,0.5l-1.5,0.4l0.1,1h5.1
			l0.1-1l-1.4-0.4c0-0.1,0-0.4-0.1-0.7c0-0.3,0-0.7-0.1-1.2c0-0.5,0-1,0-1.6v-1.5h1.2l1.3,2.5c0.5,1,1,1.8,1.6,2.4
			c0.5,0.6,1.1,1,1.6,1.3c0.6,0.3,1.2,0.4,2,0.4c0.2,0,0.4,0,0.6,0s0.4,0,0.6-0.1l0-0.9c-0.4-0.1-0.8-0.2-1.1-0.4
			C180.6,33,180.2,32.8,179.9,32.4z M173.2,27v-1.7c0-0.6,0-1.2,0-1.6s0-0.7,0-1s0-0.4,0-0.6c0-0.1,0-0.2,0-0.3h1.2
			c0.8,0,1.5,0.2,1.9,0.6s0.6,1,0.6,1.8c0,0.8-0.3,1.5-0.8,2c-0.5,0.5-1.2,0.7-2.1,0.7L173.2,27L173.2,27z"/>
		<path class="st0" d="M190.4,20.4l-1.6,0.9l-4.7,11.8l-1.2,0.3l0.1,1h4.1l0.1-1l-1.4-0.3l1-2.9c0.4,0,0.8,0,1.1,0c0.5,0,1,0,1.5,0
			s1,0,1.5,0c0.3,0,0.6,0,0.9,0l1.2,2.9l-1.4,0.3l0.1,1h5.2l0.1-1l-1.2-0.3L190.4,20.4z M189.3,29c-0.7,0-1.3,0-1.8,0
			c-0.1,0-0.2,0-0.4,0l1.9-5.2l2.1,5.2c-0.1,0-0.1,0-0.2,0C190.6,29,190,29,189.3,29z"/>
		<path class="st0" d="M202.1,23.8c0-0.5,0-0.9,0.1-1.2c0-0.3,0.1-0.5,0.1-0.5l1.4-0.3l-0.1-1h-5.3l-0.1,1l1.4,0.3
			c0,0.1,0.1,0.2,0.1,0.5c0,0.3,0,0.7,0,1.2c0,0.5,0,1.1,0,1.8v4c0,0.7,0,1.2,0,1.7c0,0.5,0,0.9,0,1.2c0,0.3,0,0.5-0.1,0.6l-1.4,0.3
			l0.1,1h5.3l0.1-1l-1.4-0.3c0-0.1-0.1-0.3-0.1-0.5c0-0.3,0-0.7-0.1-1.2c0-0.5,0-1.1,0-1.8v-4C202.1,24.9,202.1,24.3,202.1,23.8z"/>
		<path class="st0" d="M214.8,20.8l-0.1,1l1.6,0.3c0,0.1,0.1,0.2,0.1,0.6s0,0.8,0.1,1.3c0,0.6,0,1.3,0,2.1V30l-7.4-9.2h-3.3l-0.1,1
			l1.4,0.3c0,0.1,0.1,0.2,0.1,0.5s0,0.6,0.1,1.1s0,1,0,1.6v3.7c0,0.9,0,1.6,0,2.2c0,0.6,0,1-0.1,1.4s0,0.5-0.1,0.6l-1.4,0.3l0.1,1
			h4.6l0.1-1l-1.6-0.3c0-0.1,0-0.3-0.1-0.6c0-0.3,0-0.8-0.1-1.3c0-0.6,0-1.3,0-2.2v-4.7l8.1,10.3h1.2c0-0.5,0-1.1,0-1.6s0-1.1,0-1.6
			v-5.2c0-0.8,0-1.6,0-2.1c0-0.6,0-1,0.1-1.3c0-0.3,0-0.5,0.1-0.6l1.4-0.3l-0.1-1L214.8,20.8L214.8,20.8z"/>
		<path class="st0" d="M225.3,23.8c0-0.5,0-0.9,0.1-1.2c0-0.3,0.1-0.5,0.1-0.5l1.4-0.3l-0.1-1h-5.3l-0.1,1l1.4,0.3
			c0,0.1,0.1,0.2,0.1,0.5c0,0.3,0,0.7,0,1.2c0,0.5,0,1.1,0,1.8v4c0,0.7,0,1.2,0,1.7c0,0.5,0,0.9,0,1.2c0,0.3,0,0.5-0.1,0.6l-1.4,0.3
			l0.1,1h5.3l0.1-1l-1.4-0.3c0-0.1-0.1-0.3-0.1-0.5c0-0.3,0-0.7-0.1-1.2c0-0.5,0-1.1,0-1.8v-4C225.3,24.9,225.3,24.3,225.3,23.8z"/>
		<path class="st0" d="M238,20.8l-0.1,1l1.6,0.3c0,0.1,0.1,0.2,0.1,0.6s0,0.8,0.1,1.3c0,0.6,0,1.3,0,2.1V30l-7.4-9.2H229l-0.1,1
			l1.4,0.3c0,0.1,0.1,0.2,0.1,0.5c0,0.3,0,0.6,0.1,1.1c0,0.5,0,1,0,1.6v3.7c0,0.9,0,1.6,0,2.2c0,0.6,0,1-0.1,1.4s0,0.5-0.1,0.6
			l-1.4,0.3l0.1,1h4.6l0.1-1l-1.6-0.3c0-0.1,0-0.3-0.1-0.6c0-0.3,0-0.8-0.1-1.3c0-0.6,0-1.3,0-2.2v-4.7l8.1,10.3h1.2
			c0-0.5,0-1.1,0-1.6s0-1.1,0-1.6v-5.2c0-0.8,0-1.6,0-2.1c0-0.6,0-1,0.1-1.3c0-0.3,0-0.5,0.1-0.6l1.4-0.3l-0.1-1L238,20.8L238,20.8z
			"/>
		<path class="st0" d="M255.4,30.9c0-0.4,0-0.8,0-1.1s0-0.5,0-0.6l1.1-0.3l-0.1-1h-4.9l-0.1,1l1.6,0.3c0,0.2,0,0.5,0.1,0.9
			c0,0.4,0,0.8,0,1.2v1.5c-0.2,0.1-0.4,0.2-0.7,0.2c-0.5,0.1-0.9,0.2-1.2,0.2c-0.9,0-1.8-0.2-2.6-0.7c-0.8-0.5-1.4-1.2-1.8-2
			c-0.5-0.9-0.7-2-0.7-3.3c0-1,0.2-1.9,0.5-2.8s0.9-1.5,1.6-1.9s1.6-0.7,2.7-0.7c0.4,0,0.8,0,1.2,0.1c0.5,0.1,0.8,0.2,1.1,0.4
			l0.7,2.1l1.2-0.1l-0.1-3.1c-0.5-0.2-1.1-0.4-1.8-0.5c-0.7-0.1-1.4-0.2-2.1-0.2c-1.2,0-2.3,0.2-3.3,0.5s-1.8,0.9-2.5,1.5
			c-0.7,0.7-1.2,1.4-1.6,2.3c-0.4,0.9-0.5,1.8-0.5,2.8c0,1.5,0.3,2.7,1,3.8c0.7,1,1.6,1.8,2.7,2.3s2.4,0.8,3.9,0.8
			c0.8,0,1.6-0.1,2.4-0.3c0.8-0.2,1.6-0.5,2.2-0.9c0-0.5,0-0.8,0-1.2C255.4,31.8,255.4,31.4,255.4,30.9z"/>
	</g>
	<g>
		<path class="st1" d="M182.5,46.6c-0.1-0.1-0.2-0.1-0.3-0.1c0.1,0,0.2-0.1,0.2-0.1c0.1,0,0.1-0.1,0.2-0.2l4.5-4.6h-0.6
			c-0.1,0-0.2,0-0.2,0c-0.1,0-0.1,0.1-0.2,0.2l-4.1,4.2c-0.1,0-0.1,0.1-0.1,0.1c-0.1,0-0.1,0.1-0.1,0.1c-0.1,0-0.1,0-0.2,0
			c-0.1,0-0.1,0-0.2,0h-0.6v-4.7h-0.7v10.2h0.7v-4.9h0.7c0.1,0,0.2,0,0.3,0c0.1,0,0.1,0,0.2,0.1c0.1,0,0.1,0.1,0.1,0.1
			c0,0,0.1,0.1,0.1,0.1l4.3,4.4c0.1,0.1,0.1,0.1,0.2,0.1c0.1,0,0.1,0,0.3,0h0.6l-4.7-4.9C182.7,46.7,182.6,46.6,182.5,46.6z"/>
		<path class="st1" d="M193.2,45.1c-0.2-0.2-0.4-0.4-0.7-0.5c-0.3-0.1-0.6-0.2-1-0.2c-0.5,0-1,0.1-1.4,0.3c-0.4,0.2-0.8,0.5-1.2,0.8
			l0.1,0.2c0.1,0.1,0.1,0.1,0.2,0.1c0.1,0,0.2,0,0.3-0.1c0.1-0.1,0.2-0.2,0.4-0.3s0.4-0.2,0.6-0.3c0.2-0.1,0.5-0.1,0.9-0.1
			c0.6,0,1,0.2,1.3,0.5s0.4,0.9,0.4,1.5v0.8c-0.8,0-1.5,0.1-2.1,0.2c-0.6,0.1-1.1,0.3-1.4,0.5s-0.6,0.4-0.8,0.7
			c-0.2,0.3-0.3,0.5-0.3,0.8c0,0.3,0.1,0.6,0.2,0.8s0.2,0.4,0.4,0.6s0.4,0.3,0.6,0.3c0.2,0.1,0.5,0.1,0.7,0.1c0.3,0,0.6,0,0.8-0.1
			c0.2-0.1,0.5-0.1,0.7-0.2c0.2-0.1,0.4-0.2,0.6-0.4c0.2-0.2,0.4-0.3,0.6-0.5l0.1,0.9c0,0.1,0.1,0.2,0.3,0.2h0.3V47
			c0-0.4-0.1-0.8-0.1-1.1C193.5,45.6,193.4,45.3,193.2,45.1z M193.1,50.1c-0.2,0.2-0.3,0.3-0.5,0.5c-0.2,0.2-0.4,0.3-0.6,0.4
			s-0.4,0.2-0.6,0.2s-0.5,0.1-0.8,0.1c-0.2,0-0.4,0-0.5-0.1c-0.2,0-0.3-0.1-0.4-0.2c-0.1-0.1-0.2-0.3-0.3-0.4
			c-0.1-0.2-0.1-0.4-0.1-0.6c0-0.2,0.1-0.5,0.2-0.7s0.4-0.4,0.7-0.5c0.3-0.1,0.7-0.3,1.2-0.3s1.1-0.1,1.8-0.2L193.1,50.1L193.1,50.1
			z"/>
		<path class="st1" d="M199.1,50.8c0,0-0.1,0-0.1,0.1c-0.1,0-0.1,0.1-0.2,0.2c-0.1,0.1-0.2,0.1-0.3,0.2c-0.1,0-0.3,0.1-0.4,0.1
			c-0.1,0-0.3,0-0.4-0.1c-0.1,0-0.2-0.1-0.3-0.2s-0.2-0.2-0.2-0.3s-0.1-0.3-0.1-0.5v-4.9h2.3v-0.5H197V42h-0.3c-0.1,0-0.1,0-0.1,0
			s-0.1,0.1-0.1,0.1l-0.2,2.6l-1.2,0.1v0.3c0,0,0,0.1,0.1,0.1s0.1,0,0.1,0h1v4.9c0,0.6,0.1,1,0.4,1.2c0.3,0.3,0.6,0.4,1.1,0.4
			c0.3,0,0.6-0.1,0.9-0.2c0.3-0.1,0.5-0.3,0.7-0.5l-0.2-0.3C199.2,50.8,199.2,50.8,199.1,50.8z"/>
		<path class="st1" d="M206.1,45.1c-0.2-0.2-0.4-0.4-0.8-0.5c-0.3-0.1-0.6-0.2-1-0.2c-0.5,0-1,0.1-1.4,0.4c-0.4,0.2-0.8,0.6-1.1,1
			v-4.5H201v10.5h0.7v-5.4c0.3-0.4,0.7-0.8,1.1-1c0.4-0.2,0.8-0.4,1.3-0.4c0.6,0,1.1,0.2,1.4,0.6c0.3,0.4,0.5,0.9,0.5,1.6v4.6h0.7
			v-4.6c0-0.4-0.1-0.8-0.1-1.1C206.4,45.7,206.3,45.4,206.1,45.1z"/>
		<path class="st1" d="M211.8,44.4c-0.6,0-1,0.2-1.4,0.5s-0.7,0.8-0.9,1.4l-0.1-1.5c0-0.1,0-0.1-0.1-0.2s-0.1,0-0.2,0h-0.4v7.2h0.7
			V47c0.2-0.6,0.5-1.1,0.9-1.5s0.8-0.5,1.3-0.5c0.1,0,0.3,0,0.4,0s0.2,0,0.3,0.1c0.1,0,0.1,0,0.2,0.1c0.1,0,0.1,0,0.1,0
			c0.1,0,0.1,0,0.1-0.1l0.1-0.5c-0.2-0.1-0.3-0.2-0.5-0.2C212.3,44.4,212.1,44.4,211.8,44.4z"/>
		<path class="st1" d="M215.6,41.6c-0.1-0.1-0.1-0.1-0.2-0.1c-0.1,0-0.2,0-0.2,0s-0.2,0-0.2,0s-0.1,0.1-0.2,0.1
			c-0.1,0.1-0.1,0.1-0.1,0.2c0,0.1-0.1,0.2-0.1,0.2s0,0.2,0.1,0.2c0,0.1,0.1,0.1,0.1,0.2s0.1,0.1,0.2,0.1c0.1,0,0.2,0,0.2,0
			s0.2,0,0.2,0s0.1-0.1,0.2-0.1c0.1-0.1,0.1-0.1,0.1-0.2c0-0.1,0.1-0.2,0.1-0.2s0-0.2-0.1-0.2C215.7,41.7,215.6,41.7,215.6,41.6z"/>
		<rect x="214.8" y="44.5" class="st1" width="0.7" height="7.2"/>
		<path class="st1" d="M223,45.1c-0.2-0.2-0.4-0.4-0.8-0.5c-0.3-0.1-0.6-0.2-1-0.2c-0.5,0-1,0.1-1.4,0.4c-0.4,0.2-0.8,0.6-1.1,1
			l-0.1-1.1c0-0.1-0.1-0.2-0.2-0.2H218v7.2h0.7v-5.4c0.3-0.4,0.7-0.8,1.1-1c0.4-0.2,0.8-0.4,1.3-0.4c0.6,0,1.1,0.2,1.4,0.6
			c0.3,0.4,0.5,0.9,0.5,1.6v4.6h0.7v-4.6c0-0.4-0.1-0.8-0.1-1.1C223.4,45.7,223.2,45.4,223,45.1z"/>
		<path class="st1" d="M232.3,47c0.4,0,0.9-0.2,1.2-0.3c0.4-0.2,0.7-0.4,0.9-0.6c0.2-0.2,0.4-0.5,0.6-0.8s0.2-0.7,0.2-1.1
			c0-0.9-0.3-1.5-0.9-2s-1.5-0.7-2.6-0.7h-2.6v10.2h0.7v-4.6h1.3c0.2,0,0.3,0,0.4,0.1c0.1,0,0.2,0.1,0.3,0.2l3.3,4.1
			c0.1,0.1,0.1,0.1,0.2,0.1c0.1,0,0.1,0,0.2,0h0.6l-3.5-4.4C232.6,47.2,232.5,47.1,232.3,47z M231.6,46.5h-1.8v-4.5h1.9
			c0.9,0,1.6,0.2,2.1,0.5s0.7,0.9,0.7,1.6c0,0.4-0.1,0.7-0.2,1c-0.1,0.3-0.3,0.5-0.6,0.7s-0.6,0.4-0.9,0.5
			C232.5,46.5,232.1,46.5,231.6,46.5z"/>
		<path class="st1" d="M242.4,49.9c-0.3,0.4-0.7,0.8-1.1,1c-0.4,0.2-0.8,0.4-1.3,0.4c-0.6,0-1.1-0.2-1.4-0.6s-0.5-0.9-0.5-1.6v-4.6
			h-0.7v4.6c0,0.4,0.1,0.8,0.1,1.1c0.1,0.3,0.2,0.6,0.4,0.8c0.2,0.2,0.4,0.4,0.7,0.5c0.3,0.1,0.6,0.2,1.1,0.2c0.5,0,1-0.1,1.4-0.4
			c0.4-0.2,0.8-0.6,1.1-1l0.1,1.1c0,0.1,0.1,0.2,0.2,0.2h0.4v-7.2h-0.7L242.4,49.9L242.4,49.9z"/>
		<path class="st1" d="M248.7,50.8c0,0-0.1,0-0.1,0.1c-0.1,0-0.1,0.1-0.2,0.2s-0.2,0.1-0.3,0.2c-0.1,0-0.3,0.1-0.5,0.1
			c-0.1,0-0.3,0-0.4-0.1s-0.2-0.1-0.3-0.2s-0.2-0.2-0.2-0.3s-0.1-0.3-0.1-0.5v-4.9h2.3v-0.5h-2.3V42h-0.3c0,0-0.1,0-0.1,0
			c0,0,0,0.1,0,0.1l-0.2,2.6l-1.2,0.1v0.3c0,0,0,0.1,0,0.1s0.1,0,0.1,0h1v4.9c0,0.6,0.1,1,0.4,1.2s0.6,0.4,1.1,0.4
			c0.3,0,0.6-0.1,0.9-0.2c0.3-0.1,0.5-0.3,0.7-0.5l-0.2-0.3C248.8,50.8,248.7,50.8,248.7,50.8z"/>
		<path class="st1" d="M250.2,44.5v0.5h4.4l-4.5,6.1c-0.1,0.1-0.1,0.2-0.1,0.3v0.3h5.2v-0.5h-4.4l4.5-6.1c0.1-0.1,0.1-0.2,0.1-0.3
			v-0.3C255.4,44.5,250.2,44.5,250.2,44.5z"/>
	</g>
	<g>
		<path class="st2" d="M67.6,31.3c-0.2-0.9-0.6-1.7-1.1-2.5c-0.5-0.8-1.1-1.6-1.7-2.3c-0.4-0.6-0.6-1.2-0.3-1.9
			c0.1-0.3,0.1-0.5-0.2-0.6c-0.3-0.1-0.3-0.3-0.4-0.6c-0.1-2-0.1-4-0.1-6.1C64,14.6,64.2,9.7,64.2,7l0,0c0.1-0.2,0.2-0.4,0.3-0.6
			c0.4-0.7,0.3-1.3,0.1-1.6c-0.2-0.3-0.3-0.6-0.3-1.1c0-0.4,0-0.4-0.2-0.9c-0.2-0.5-0.4-1.7-0.9-2.2c-0.5-0.5-1.5,0.1-1.6,0.2
			c-0.1,0-0.7,0.4-1.3,0.8c-0.6,0.4-1.7,0.4-3.1,1.2c-1.4,0.8-1.3,0.6-2.1,0.5c-0.8-0.1-0.8-0.1-1.7-0.1c-0.9,0-0.9,0.4-1.7,0.9
			c-0.8,0.4-1.7,0.7-1.7,0.7c-0.4,0.1-1.1,1.5-1.9,2.6c-0.8,1.1-1,1.5-1,2.1c0,0.6-0.2,1.2-0.5,2.4c-0.2,0.9,0.6,0.9,0.9,0.9
			c0,0,0.1,0,0.1,0c0,0,0,0.1,0,0.2c0.5,0.6,1.4,3.4,1.6,3.7c0.3,0.5,0.7,1,1.2,1.3c0.9,0.5,3.3,0.9,3.6,0.7
			c0.4-0.1,0.5-0.3,0.8-0.8c0.1-0.2,0.2-0.9,0.3-1.9c0-0.9,0-1.6,0-1.8c-0.1-0.4-1.8-2.3-2.8-3.3c-1-1-1.2-2.4-1.1-2.6
			c0-0.1,0.1-0.1,0.2-0.1c0.1,0,0.1,0.1,0.1,0.2c0,0.2,0.1,1.5,1.1,2.4c0.9,0.9,2.8,2.9,2.9,3.4c0.1,0.4,0.1,3.2-0.2,3.9
			c-0.3,0.6-0.8,0.9-1.1,0.9c-0.2,0-2.7-0.2-3.7-0.7c-0.6-0.3-1-0.9-1.3-1.4c-0.2-0.3-0.9-2.7-1.4-3.5c-0.1,0.6-0.2,1.7-0.1,3.7
			c0.1,0.4,0,1-0.1,1.8l0,0c-0.4,0.2-0.8,1-0.6,1.8c-0.3,0.6-0.6,1.1-1,1.5c-0.5,0.7-0.6,0.9-1.1,1.6s-0.7,0.8-1.3,1.2
			c-0.6,0.4-1.5,1-2.9,1.9c-1.4,0.9-2.4,2.2-3,2.7s-2.6,3.6-3.7,4.9s-1.7,2.6-3.4,5c-1.7,2.4-2.1,3.2-2.6,5
			c-0.5,1.8-0.2,6.2-0.2,6.2s0,0.1,0,0.2c0,0.1-0.1,0.8-1.8-1.1c-1.7-1.9-1.9-3.8-2.2-5.8s-0.4-5-0.8-7.5c-0.2-0.9,0-1.5-0.7-1.3
			c-0.5,0.1-1,1.1-1.3,2.6c-0.2,1-0.3,1.8-0.3,3.5c0,1.7,0.7,6.1,1.1,7.5c0.4,1.4,1.7,3.9,3.2,5.1c1.5,1.2,3.4,1.5,4.3,1.5
			c0.8,0.1,1.5,0.1,2.8,0c1.3-0.1,6.1-0.5,7.3-0.5s1.3-1,1.9-1.5c0.6-0.5,1.6-0.5,2.5-0.5s1,0.4,1.6,1.6s10.9,0.6,10.9,0.6
			s2.2,0.1,3.3-0.3c0.3,0,0.7,0,1.1-0.1c0.6-0.1,1.6-0.7,1.6-1.1c0-0.6-1.9-1.6-2.1-1.9c-0.4-0.6-1.2-2.7-1.5-3.1s-0.5-3.3-0.5-3.8
			c-0.1-0.5,0.2-3,0.2-3.7c0-0.4,0.4-4.1,0.1-5.1c0.7-1,2.4-5,2.4-6.1c0-1.1-0.5-2.9-0.6-3.4s0.3-1.6,0.4-2c0.1-0.3,0.6-1.6,0.6-1.6
			c0,0,0-0.1,0-0.3c0-0.1,0.1-0.2,0.1-0.4l0.2-0.7c0-0.8,0.2-1.2-0.3-1.2c-0.1,0-0.2,0-0.2,0c-0.1-0.2-0.2-0.4-0.3-0.6
			c-0.4-0.6-0.8-1.9-0.9-2.8c-0.2-0.9,0-4.3,0.1-5c0.1-0.5,1.2-1.2,2.1-1.8c0,1.1,0,2.1,0.1,3.2c0,1,0.1,2,0.1,2.9
			c0,0.9,0,1.7,0,2.6c0,1.8,0.1,3.6,0.2,5.4c0,0.2,0,0.4-0.1,0.5c-0.2,0.5-0.1,0.9,0.2,1.2c0.3,0.3,0.3,0.7,0.1,1.1
			c-0.1,0.3-0.2,0.6-0.2,0.9c0,0.3,0.1,0.5,0.4,0.5s0.4-0.1,0.4-0.4c-0.1-0.5,0.3-1.1-0.1-1.6c-0.1-0.2,0-0.5,0-0.7
			c0.1-0.4,0.2-0.7-0.1-1c-0.1-0.1-0.1-0.2-0.1-0.4c0-1.5,0-3,0-4.5c0-1.9-0.1-3.8-0.1-5.7c0-1.5,0-3-0.1-4.5
			c0.2-0.1,0.3-0.2,0.4-0.3c0.2-0.2,0.5-0.5,0.7-0.9c0.1,1.4,0,2.8,0,4.2c-0.2,3.9-0.3,7.8-0.1,11.7c0.1,2.2,0.1,4.5,0.2,6.7
			c0,0.7,0.1,1.4,0.2,2.1c0.3,1.4,1.5,2.1,2.6,1.5C67.4,34,67.8,32.8,67.6,31.3z M47.8,50.5c-0.6-1.9-2-5.4-1.6-6.3
			c0.4-0.9,2.2-1.5,3.7-1.8c0,0,0,2.5,0,2.7c0,0.3-0.3,2.4,0,3.3c0.2,0.5,0.5,0.9,0.5,0.9l0.7,3.4C51.3,52.6,48.4,52.4,47.8,50.5z
			 M55.4,52.8c0.3-0.1-0.8-1.1-1-1.7c-0.2-0.6-0.6-1.2-0.9-1.6s0.1-1.7,0-2.2s0.3-1.4,0.5-2.1s0.4-2.7,0.8-3.5
			c0.1-0.1,0.1-0.2,0.2-0.3c0.2,1.3,0.4,2.7,0.2,3.4c-0.2,0.9,0.1,1.5,0.1,1.5c0.4,0.2,0.9,4.4,1.4,6.4
			C55.9,52.8,55.3,52.9,55.4,52.8z M62.4,27.6c0,0.2,0.1,0.4-0.1,0.4c-0.1,0-0.1-0.1-0.1-0.2c0-0.1-0.1-0.4,0.1-0.4
			C62.4,27.4,62.4,27.5,62.4,27.6z M62.5,25.1c0,0,0,0.1,0,0.1c-0.2,0.1-0.4,0.2-0.6,0.2c-0.1,0-0.1-0.1-0.1-0.2
			c0.1-0.3,0.3-0.1,0.5-0.2c0,0,0.1,0,0.1,0C62.4,25.1,62.5,25.1,62.5,25.1z M65.8,33.8c-0.5,0.2-0.9,0-1.2-0.6
			c-0.2-0.4-0.3-0.9-0.3-1.4c0-0.5,0-0.9,0-1.4c0-0.9,0-1.8,0-2.7c0-0.1,0-0.3,0.1-0.3c0.1-0.1,0.2,0.1,0.2,0.2
			c0.3,0.4,0.6,0.8,0.9,1.2c0.6,0.8,1.1,1.7,1.4,2.8C67,32.6,66.6,33.5,65.8,33.8z"/>
		<path class="st1" d="M39.7,56.2c20.4-0.3,38.3,0.5,48,2.1c-4.8-2.5-23.3-4.1-45.4-3.7c-18.6,0.3-34.5,1.9-42,4.1
			C10.3,57.3,24.3,56.4,39.7,56.2z"/>
		<path class="st2" d="M61.7,6.9"/>
		<path class="st2" d="M61.1,7.9"/>
		<path class="st3" d="M56.6,39.8"/>
		<path class="st0" d="M47.3,18.9c0.4-0.2,10.1,1.2,13.4,1.4c0.6,0,0.3,0.4,0.3,1.1l-0.2,0.6c-0.2,0.6-0.1,0.4-0.6,0.4
			c-2.9-0.2-12.5-1.2-13.6-1.7C46.4,19.8,46.9,19.1,47.3,18.9z"/>
	</g>
</g>
</svg>
